<?xml version="1.0" encoding="UTF-8" standalone="no"?>
<svg
   xmlns:dc="http://purl.org/dc/elements/1.1/"
   xmlns:cc="http://creativecommons.org/ns#"
   xmlns:rdf="http://www.w3.org/1999/02/22-rdf-syntax-ns#"
   xmlns:svg="http://www.w3.org/2000/svg"
   xmlns="http://www.w3.org/2000/svg"
   xmlns:sodipodi="http://sodipodi.sourceforge.net/DTD/sodipodi-0.dtd"
   xmlns:inkscape="http://www.inkscape.org/namespaces/inkscape"
   version="1.1"
   id="svg447"
   xml:space="preserve"
   width="1333.3333"
   height="1333.3333"
   viewBox="0 0 1333.3333 1333.3333"
   sodipodi:docname="BORDERHACKS_SOURCE FILE.svg"
   inkscape:version="1.0.2-2 (e86c870879, 2021-01-15)"><metadata
     id="metadata453"><rdf:RDF><cc:Work
         rdf:about=""><dc:format>image/svg+xml</dc:format><dc:type
           rdf:resource="http://purl.org/dc/dcmitype/StillImage" /><dc:title></dc:title></cc:Work></rdf:RDF></metadata><defs
     id="defs451"><clipPath
       clipPathUnits="userSpaceOnUse"
       id="clipPath465"><path
         d="m 500.685,591.392 v -3.299 c 0,-0.651 -0.529,-1.181 -1.181,-1.181 v 0 h -8.991 c -0.652,0 -1.181,0.53 -1.181,1.181 v 0 3.299 h -3.651 v -51.794 h 3.651 v 0.277 h 11.353 v -0.277 h 3.467 v 51.794 z M 489.332,569.99 v 11.629 c 0,0.652 0.529,1.181 1.181,1.181 v 0 h 8.991 c 0.652,0 1.181,-0.529 1.181,-1.181 v 0 -11.629 c 0,-0.652 -0.529,-1.181 -1.181,-1.181 v 0 h -8.991 c -0.652,0 -1.181,0.529 -1.181,1.181 m 0,-20.005 v 13.5 c 0,0.653 0.529,1.181 1.181,1.181 v 0 h 8.991 c 0.652,0 1.181,-0.528 1.181,-1.181 v 0 -13.5 c 0,-0.653 -0.529,-1.182 -1.181,-1.182 v 0 h -8.991 c -0.652,0 -1.181,0.529 -1.181,1.182"
         id="path463" /></clipPath><linearGradient
       x1="0"
       y1="0"
       x2="1"
       y2="0"
       gradientUnits="userSpaceOnUse"
       gradientTransform="matrix(2.2862899,-61.729725,-61.729725,-2.2862899,493.76904,596.4729)"
       spreadMethod="pad"
       id="linearGradient475"><stop
         style="stop-opacity:1;stop-color:#198cc9"
         offset="0"
         id="stop471" /><stop
         style="stop-opacity:1;stop-color:#25b768"
         offset="1"
         id="stop473" /></linearGradient><clipPath
       clipPathUnits="userSpaceOnUse"
       id="clipPath485"><path
         d="m 597.829,591.392 v -3.299 c 0,-0.651 -0.528,-1.181 -1.181,-1.181 v 0 h -8.991 c -0.652,0 -1.18,0.53 -1.18,1.181 v 0 3.299 h -3.651 v -51.794 h 3.651 v 0.277 h 11.352 v -0.277 h 3.468 v 51.794 z M 586.477,569.99 v 11.629 c 0,0.652 0.528,1.181 1.18,1.181 v 0 h 8.991 c 0.653,0 1.181,-0.529 1.181,-1.181 v 0 -11.629 c 0,-0.652 -0.528,-1.181 -1.181,-1.181 v 0 h -8.991 c -0.652,0 -1.18,0.529 -1.18,1.181 m 0,-20.005 v 13.5 c 0,0.653 0.528,1.181 1.18,1.181 v 0 h 8.991 c 0.653,0 1.181,-0.528 1.181,-1.181 v 0 -13.5 c 0,-0.653 -0.528,-1.182 -1.181,-1.182 v 0 h -8.991 c -0.652,0 -1.18,0.529 -1.18,1.182"
         id="path483" /></clipPath><linearGradient
       x1="0"
       y1="0"
       x2="1"
       y2="0"
       gradientUnits="userSpaceOnUse"
       gradientTransform="matrix(2.2862899,-61.729721,-61.729721,-2.2862899,590.78033,600.06592)"
       spreadMethod="pad"
       id="linearGradient495"><stop
         style="stop-opacity:1;stop-color:#198cc9"
         offset="0"
         id="stop491" /><stop
         style="stop-opacity:1;stop-color:#25b768"
         offset="1"
         id="stop493" /></linearGradient><clipPath
       clipPathUnits="userSpaceOnUse"
       id="clipPath505"><path
         d="m 476.383,539.598 h 135.653 v 9.205 H 476.383 Z"
         id="path503" /></clipPath><linearGradient
       x1="0"
       y1="0"
       x2="1"
       y2="0"
       gradientUnits="userSpaceOnUse"
       gradientTransform="matrix(3.2868152,-35.856003,-35.856003,-3.2868152,542.41235,556.61053)"
       spreadMethod="pad"
       id="linearGradient515"><stop
         style="stop-opacity:1;stop-color:#198cc9"
         offset="0"
         id="stop511" /><stop
         style="stop-opacity:1;stop-color:#25b768"
         offset="1"
         id="stop513" /></linearGradient><clipPath
       clipPathUnits="userSpaceOnUse"
       id="clipPath525"><path
         d="m 476.383,550.767 h 135.653 v 3.038 H 476.383 Z"
         id="path523" /></clipPath><linearGradient
       x1="0"
       y1="0"
       x2="1"
       y2="0"
       gradientUnits="userSpaceOnUse"
       gradientTransform="matrix(3.286828,-35.85614,-35.85614,-3.286828,542.93433,556.65839)"
       spreadMethod="pad"
       id="linearGradient535"><stop
         style="stop-opacity:1;stop-color:#198cc9"
         offset="0"
         id="stop531" /><stop
         style="stop-opacity:1;stop-color:#25b768"
         offset="1"
         id="stop533" /></linearGradient><clipPath
       clipPathUnits="userSpaceOnUse"
       id="clipPath545"><path
         d="m 476.383,512.167 h 135.653 v 80.514 H 476.383 Z"
         id="path543" /></clipPath><clipPath
       clipPathUnits="userSpaceOnUse"
       id="clipPath577"><path
         d="M 485.681,495.046 H 504 v 40.042 h -18.319 z"
         id="path575" /></clipPath><linearGradient
       x1="0"
       y1="0"
       x2="1"
       y2="0"
       gradientUnits="userSpaceOnUse"
       gradientTransform="matrix(109.9581,1.1951972,1.1951972,-109.9581,405.57547,514.09631)"
       spreadMethod="pad"
       id="linearGradient587"><stop
         style="stop-opacity:1;stop-color:#198cc9"
         offset="0"
         id="stop583" /><stop
         style="stop-opacity:1;stop-color:#25b768"
         offset="1"
         id="stop585" /></linearGradient><clipPath
       clipPathUnits="userSpaceOnUse"
       id="clipPath597"><path
         d="m 583.5,535.088 v -55.284 c 0,-1.783 1.446,-3.23 3.231,-3.23 v 0 h 11.857 c 1.784,0 3.23,1.447 3.23,3.23 v 0 55.284 z"
         id="path595" /></clipPath><linearGradient
       x1="0"
       y1="0"
       x2="1"
       y2="0"
       gradientUnits="userSpaceOnUse"
       gradientTransform="matrix(67.656784,2.0162559,2.0162559,-67.656784,546.76782,504.51077)"
       spreadMethod="pad"
       id="linearGradient609"><stop
         style="stop-opacity:1;stop-color:#198cc9"
         offset="0"
         id="stop603" /><stop
         style="stop-opacity:1;stop-color:#25b768"
         offset="0.88006477"
         id="stop605" /><stop
         style="stop-opacity:1;stop-color:#25b768"
         offset="1"
         id="stop607" /></linearGradient><clipPath
       clipPathUnits="userSpaceOnUse"
       id="clipPath619"><path
         d="m 413.635,590.66 h -4.824 c -9.839,0 -17.817,-7.978 -17.817,-17.818 v 0 -57.677 c 0,-4.919 3.989,-8.908 8.909,-8.908 v 0 c 4.921,0 8.908,3.989 8.908,8.908 v 0 52.854 c 0,2.664 2.16,4.823 4.824,4.823 v 0 h 15.251 c 8.759,0 15.251,-6.191 15.251,-14.346 v 0 c 0,-7.701 -5.889,-14.043 -13.288,-15.099 v 0 h -7.932 c -4.878,0 -9.131,-3.76 -9.277,-8.635 v 0 c -0.152,-5.045 3.893,-9.183 8.904,-9.183 v 0 h 6.342 2.869 5.587 c 8.758,0 16.46,-6.946 16.46,-14.949 v 0 c 0,-8.758 -7.443,-17.958 -15.446,-17.958 v 0 h -15.745 c -5.064,0 -8.976,-2.907 -8.976,-7.972 v 0 c 0,-4.777 3.873,-8.649 8.649,-8.649 v 0 h 16.266 c 17.969,0 33.069,15.855 33.069,34.579 v 0 c 0,11.627 -6.644,22.046 -16.459,27.935 v 0 c 4.228,5.587 6.796,12.532 6.796,19.931 v 0 c 0,18.12 -14.497,32.164 -33.07,32.164 v 0 z"
         id="path617" /></clipPath><linearGradient
       x1="0"
       y1="0"
       x2="1"
       y2="0"
       gradientUnits="userSpaceOnUse"
       gradientTransform="matrix(-43.027161,-121.01407,-121.01407,43.027161,449.71667,592.05621)"
       spreadMethod="pad"
       id="linearGradient629"><stop
         style="stop-opacity:1;stop-color:#198cc9"
         offset="0"
         id="stop625" /><stop
         style="stop-opacity:1;stop-color:#25b768"
         offset="1"
         id="stop627" /></linearGradient><clipPath
       clipPathUnits="userSpaceOnUse"
       id="clipPath639"><path
         d="m 485.674,495.046 c 0,-1.327 -1.075,-2.401 -2.401,-2.401 v 0 h -61.47 c -4.511,0 -8.168,-3.658 -8.168,-8.169 v 0 c 0,-4.511 3.657,-8.167 8.168,-8.167 v 0 h 63.871 c 10.131,0 18.342,8.211 18.342,18.343 v 0 0.394 z"
         id="path637" /></clipPath><linearGradient
       x1="0"
       y1="0"
       x2="1"
       y2="0"
       gradientUnits="userSpaceOnUse"
       gradientTransform="matrix(109.95808,1.195197,1.195197,-109.95808,405.89377,484.80936)"
       spreadMethod="pad"
       id="linearGradient649"><stop
         style="stop-opacity:1;stop-color:#198cc9"
         offset="0"
         id="stop645" /><stop
         style="stop-opacity:1;stop-color:#25b768"
         offset="1"
         id="stop647" /></linearGradient><clipPath
       clipPathUnits="userSpaceOnUse"
       id="clipPath659"><path
         d="M 0,1000 H 1000 V 0 H 0 Z"
         id="path657" /></clipPath></defs><sodipodi:namedview
     pagecolor="#ffffff"
     bordercolor="#666666"
     borderopacity="1"
     objecttolerance="10"
     gridtolerance="10"
     guidetolerance="10"
     inkscape:pageopacity="0"
     inkscape:pageshadow="2"
     inkscape:window-width="2400"
     inkscape:window-height="1321"
     id="namedview449"
     showgrid="false"
     inkscape:zoom="0.62250004"
     inkscape:cx="666.66663"
     inkscape:cy="666.66663"
     inkscape:window-x="-9"
     inkscape:window-y="-9"
     inkscape:window-maximized="1"
     inkscape:current-layer="g455" /><g
     id="g455"
     inkscape:groupmode="layer"
     inkscape:label="BORDERHACKS_SOURCE FILE"
     transform="matrix(1.3333333,0,0,-1.3333333,0,1333.3333)"><path
       d="M 0.32,0.76 H 1000 V 999.999 H 0.32 Z"
       style="fill:#ffffff;fill-opacity:1;fill-rule:nonzero;stroke:none"
       id="path457" /><g
       id="g459"><g
         id="g461"
         clip-path="url(#clipPath465)"><g
           id="g467"><g
             id="g469"><path
               d="m 500.685,591.392 v -3.299 c 0,-0.651 -0.529,-1.181 -1.181,-1.181 v 0 h -8.991 c -0.652,0 -1.181,0.53 -1.181,1.181 v 0 3.299 h -3.651 v -51.794 h 3.651 v 0.277 h 11.353 v -0.277 h 3.467 v 51.794 z M 489.332,569.99 v 11.629 c 0,0.652 0.529,1.181 1.181,1.181 v 0 h 8.991 c 0.652,0 1.181,-0.529 1.181,-1.181 v 0 -11.629 c 0,-0.652 -0.529,-1.181 -1.181,-1.181 v 0 h -8.991 c -0.652,0 -1.181,0.529 -1.181,1.181 m 0,-20.005 v 13.5 c 0,0.653 0.529,1.181 1.181,1.181 v 0 h 8.991 c 0.652,0 1.181,-0.528 1.181,-1.181 v 0 -13.5 c 0,-0.653 -0.529,-1.182 -1.181,-1.182 v 0 h -8.991 c -0.652,0 -1.181,0.529 -1.181,1.182"
               style="fill:url(#linearGradient475);stroke:none"
               id="path477" /></g></g></g></g><g
       id="g479"><g
         id="g481"
         clip-path="url(#clipPath485)"><g
           id="g487"><g
             id="g489"><path
               d="m 597.829,591.392 v -3.299 c 0,-0.651 -0.528,-1.181 -1.181,-1.181 v 0 h -8.991 c -0.652,0 -1.18,0.53 -1.18,1.181 v 0 3.299 h -3.651 v -51.794 h 3.651 v 0.277 h 11.352 v -0.277 h 3.468 v 51.794 z M 586.477,569.99 v 11.629 c 0,0.652 0.528,1.181 1.18,1.181 v 0 h 8.991 c 0.653,0 1.181,-0.529 1.181,-1.181 v 0 -11.629 c 0,-0.652 -0.528,-1.181 -1.181,-1.181 v 0 h -8.991 c -0.652,0 -1.18,0.529 -1.18,1.181 m 0,-20.005 v 13.5 c 0,0.653 0.528,1.181 1.18,1.181 v 0 h 8.991 c 0.653,0 1.181,-0.528 1.181,-1.181 v 0 -13.5 c 0,-0.653 -0.528,-1.182 -1.181,-1.182 v 0 h -8.991 c -0.652,0 -1.18,0.529 -1.18,1.182"
               style="fill:url(#linearGradient495);stroke:none"
               id="path497" /></g></g></g></g><g
       id="g499"><g
         id="g501"
         clip-path="url(#clipPath505)"><g
           id="g507"><g
             id="g509"><path
               d="m 476.383,539.598 h 135.653 v 9.205 H 476.383 Z"
               style="fill:url(#linearGradient515);stroke:none"
               id="path517" /></g></g></g></g><g
       id="g519"><g
         id="g521"
         clip-path="url(#clipPath525)"><g
           id="g527"><g
             id="g529"><path
               d="m 476.383,550.767 h 135.653 v 3.038 H 476.383 Z"
               style="fill:url(#linearGradient535);stroke:none"
               id="path537" /></g></g></g></g><g
       id="g539"><g
         id="g541"
         clip-path="url(#clipPath545)"><g
           id="g547"
           transform="translate(537.0664,560.3975)"><path
             d="m 0,0 c -20.059,0 -36.176,8.747 -42.132,23.371 l 1.298,0.527 C -34.381,8.054 -15.414,-0.617 7.486,1.802 26.687,3.828 41.304,14.174 46.584,29.478 l 1.324,-0.457 C 42.445,13.19 27.39,2.494 7.634,0.409 5.036,0.135 2.487,0 0,0"
             style="fill:#198cc9;fill-opacity:1;fill-rule:nonzero;stroke:none"
             id="path549" /></g><g
           id="g551"
           transform="translate(550.1143,560.397)"><path
             d="M 0,0 C -2.489,0 -5.039,0.135 -7.638,0.41 -27.395,2.496 -42.45,13.191 -47.913,29.021 l 1.324,0.457 C -41.309,14.176 -26.692,3.83 -7.49,1.803 15.401,-0.62 34.376,8.053 40.83,23.899 l 1.297,-0.528 C 36.171,8.748 20.055,0 0,0"
             style="fill:#198cc9;fill-opacity:1;fill-rule:nonzero;stroke:none"
             id="path553" /></g><g
           id="g555"
           transform="translate(440.4814,560.3975)"><path
             d="m 0,0 c -20.057,0 -36.175,8.747 -42.131,23.371 l 1.297,0.527 C -34.38,8.054 -15.408,-0.62 7.487,1.802 26.688,3.828 41.304,14.174 46.585,29.478 l 1.324,-0.457 C 42.446,13.19 27.39,2.494 7.634,0.409 5.037,0.135 2.488,0 0,0"
             style="fill:#198cc9;fill-opacity:1;fill-rule:nonzero;stroke:none"
             id="path557" /></g><g
           id="g559"
           transform="translate(453.5288,560.397)"><path
             d="M 0,0 C -2.489,0 -5.039,0.135 -7.637,0.41 -27.394,2.496 -42.45,13.191 -47.911,29.021 l 1.324,0.457 C -41.308,14.176 -26.692,3.83 -7.49,1.803 15.412,-0.622 34.377,8.053 40.831,23.899 l 1.298,-0.528 C 36.172,8.748 20.056,0 0,0"
             style="fill:#198cc9;fill-opacity:1;fill-rule:nonzero;stroke:none"
             id="path561" /></g><g
           id="g563"
           transform="translate(631.8945,560.3975)"><path
             d="m 0,0 c -20.058,0 -36.176,8.747 -42.131,23.371 l 1.297,0.527 C -34.379,8.054 -15.413,-0.622 7.486,1.802 26.688,3.828 41.305,14.174 46.585,29.478 l 1.324,-0.457 C 42.446,13.19 27.39,2.494 7.634,0.409 5.036,0.135 2.487,0 0,0"
             style="fill:#198cc9;fill-opacity:1;fill-rule:nonzero;stroke:none"
             id="path565" /></g><g
           id="g567"
           transform="translate(644.9424,560.397)"><path
             d="M 0,0 C -2.489,0 -5.039,0.135 -7.638,0.41 -27.395,2.496 -42.45,13.191 -47.912,29.021 l 1.324,0.457 C -41.309,14.176 -26.692,3.83 -7.49,1.803 15.401,-0.62 34.376,8.053 40.831,23.899 l 1.296,-0.528 C 36.171,8.748 20.055,0 0,0"
             style="fill:#198cc9;fill-opacity:1;fill-rule:nonzero;stroke:none"
             id="path569" /></g></g></g><g
       id="g571"><g
         id="g573"
         clip-path="url(#clipPath577)"><g
           id="g579"><g
             id="g581"><path
               d="M 485.681,495.046 H 504 v 40.042 h -18.319 z"
               style="fill:url(#linearGradient587);stroke:none"
               id="path589" /></g></g></g></g><g
       id="g591"><g
         id="g593"
         clip-path="url(#clipPath597)"><g
           id="g599"><g
             id="g601"><path
               d="m 583.5,535.088 v -55.284 c 0,-1.783 1.446,-3.23 3.231,-3.23 v 0 h 11.857 c 1.784,0 3.23,1.447 3.23,3.23 v 0 55.284 z"
               style="fill:url(#linearGradient609);stroke:none"
               id="path611" /></g></g></g></g><g
       id="g613"><g
         id="g615"
         clip-path="url(#clipPath619)"><g
           id="g621"><g
             id="g623"><path
               d="m 413.635,590.66 h -4.824 c -9.839,0 -17.817,-7.978 -17.817,-17.818 v 0 -57.677 c 0,-4.919 3.989,-8.908 8.909,-8.908 v 0 c 4.921,0 8.908,3.989 8.908,8.908 v 0 52.854 c 0,2.664 2.16,4.823 4.824,4.823 v 0 h 15.251 c 8.759,0 15.251,-6.191 15.251,-14.346 v 0 c 0,-7.701 -5.889,-14.043 -13.288,-15.099 v 0 h -7.932 c -4.878,0 -9.131,-3.76 -9.277,-8.635 v 0 c -0.152,-5.045 3.893,-9.183 8.904,-9.183 v 0 h 6.342 2.869 5.587 c 8.758,0 16.46,-6.946 16.46,-14.949 v 0 c 0,-8.758 -7.443,-17.958 -15.446,-17.958 v 0 h -15.745 c -5.064,0 -8.976,-2.907 -8.976,-7.972 v 0 c 0,-4.777 3.873,-8.649 8.649,-8.649 v 0 h 16.266 c 17.969,0 33.069,15.855 33.069,34.579 v 0 c 0,11.627 -6.644,22.046 -16.459,27.935 v 0 c 4.228,5.587 6.796,12.532 6.796,19.931 v 0 c 0,18.12 -14.497,32.164 -33.07,32.164 v 0 z"
               style="fill:url(#linearGradient629);stroke:none"
               id="path631" /></g></g></g></g><g
       id="g633"><g
         id="g635"
         clip-path="url(#clipPath639)"><g
           id="g641"><g
             id="g643"><path
               d="m 485.674,495.046 c 0,-1.327 -1.075,-2.401 -2.401,-2.401 v 0 h -61.47 c -4.511,0 -8.168,-3.658 -8.168,-8.169 v 0 c 0,-4.511 3.657,-8.167 8.168,-8.167 v 0 h 63.871 c 10.131,0 18.342,8.211 18.342,18.343 v 0 0.394 z"
               style="fill:url(#linearGradient649);stroke:none"
               id="path651" /></g></g></g></g><g
       id="g653"><g
         id="g655"
         clip-path="url(#clipPath659)"><path
           d="m 400.537,514.21 h -1.539 v 3.079 h 1.539 z"
           style="fill:#ffffff;fill-opacity:1;fill-rule:nonzero;stroke:none"
           id="path661" /><g
           id="g663"
           transform="translate(425.1167,581.6636)"><path
             d="m 0,0 c -1.837,0.108 -3.839,0.176 -5.954,0.199 l 0.018,1.539 C -3.798,1.715 -1.771,1.648 0.09,1.537 Z M 11.684,-1.697 C 9.956,-1.234 8.01,-0.854 5.903,-0.563 l 0.21,1.524 C 8.284,0.663 10.292,0.27 12.081,-0.208 Z m -28.879,-0.218 -0.74,1.35 c 1.714,0.941 3.697,1.603 5.893,1.966 l 0.252,-1.518 c -2.024,-0.335 -3.843,-0.94 -5.405,-1.798 m 38.883,-5.217 c -1.228,1.333 -2.719,2.444 -4.562,3.394 l 0.707,1.368 c 1.976,-1.021 3.653,-2.272 4.988,-3.719 z m -45.578,-3.581 -1.482,0.418 c 0.602,2.13 1.514,4.023 2.704,5.622 l 1.236,-0.92 c -1.08,-1.449 -1.906,-3.172 -2.458,-5.12 m 49.588,-6.898 c -0.055,0.818 -0.147,1.622 -0.273,2.393 -0.194,1.16 -0.474,2.256 -0.834,3.255 l 1.449,0.523 c 0.391,-1.087 0.694,-2.273 0.903,-3.527 0.135,-0.821 0.233,-1.675 0.292,-2.542 z m -50.278,-4.812 h -1.539 v 3.633 c -0.006,0 -0.106,0.829 -0.106,2.112 l 0.002,0.261 1.539,-0.027 -10e-4,-0.234 c 0,-1.222 0.098,-2.003 0.099,-2.011 z m 50.209,-7.196 -1.458,0.496 c 0.62,1.822 1.066,3.736 1.325,5.684 l 1.526,-0.204 c -0.273,-2.048 -0.742,-4.057 -1.393,-5.976 m -50.209,-4.79 h -1.539 v 5.993 h 1.539 z m 43.852,-5.654 -1.088,1.089 c 1.342,1.341 2.537,2.877 3.553,4.569 l 1.32,-0.793 c -1.08,-1.8 -2.355,-3.436 -3.785,-4.865 m -10.57,-6.158 -0.421,1.479 c 1.896,0.54 3.687,1.296 5.327,2.246 l 0.773,-1.332 c -1.751,-1.013 -3.662,-1.819 -5.679,-2.393 m -33.282,-0.175 h -1.539 v 5.993 h 1.539 z m 0,-11.986 h -1.539 v 5.993 h 1.539 z"
             style="fill:#ffffff;fill-opacity:1;fill-rule:nonzero;stroke:none"
             id="path665" /></g><g
           id="g667"
           transform="translate(425.2563,534.3105)"><path
             d="M 0,0 C -0.251,0 -0.502,0.003 -0.753,0.007 L -0.799,1.544 C -0.751,1.548 0.414,1.642 2.326,1.66 L 2.392,0.078 C 1.613,0.027 0.811,0 0,0"
             style="fill:#ffffff;fill-opacity:1;fill-rule:nonzero;stroke:none"
             id="path669" /></g><g
           id="g671"
           transform="translate(439.6689,533.416)"><path
             d="m 0,0 c -1.888,0.359 -3.91,0.628 -6.008,0.8 l 0.126,1.533 C -3.731,2.159 -1.653,1.882 0.289,1.512 Z M 11.229,-4.051 C 9.663,-3.078 7.845,-2.23 5.828,-1.528 l 0.505,1.455 c 2.124,-0.74 4.045,-1.637 5.708,-2.67 z m 7.262,-8.966 c -0.421,1.114 -0.923,2.185 -1.493,3.184 -0.388,0.68 -0.839,1.339 -1.339,1.957 l 1.196,0.968 c 0.552,-0.681 1.051,-1.409 1.481,-2.162 0.609,-1.069 1.145,-2.214 1.595,-3.403 z m 3.035,-11.881 -1.531,0.162 c 0.092,0.873 0.139,1.766 0.139,2.654 0,1.099 -0.071,2.207 -0.211,3.294 l 1.528,0.195 c 0.147,-1.151 0.222,-2.325 0.222,-3.489 0,-0.942 -0.049,-1.889 -0.147,-2.816 m -4.366,-11.749 -1.256,0.889 c 1.138,1.609 2.064,3.372 2.754,5.239 l 1.443,-0.532 c -0.735,-1.993 -1.725,-3.877 -2.941,-5.596 m -9.515,-8.137 -0.712,1.365 c 1.817,0.948 3.484,2.06 4.956,3.301 l 0.992,-1.176 c -1.557,-1.315 -3.319,-2.489 -5.236,-3.49 m -11.867,-3.808 -0.253,1.519 c 2.064,0.344 4.036,0.809 5.864,1.383 l 0.46,-1.47 c -1.895,-0.594 -3.937,-1.075 -6.071,-1.432"
             style="fill:#ffffff;fill-opacity:1;fill-rule:nonzero;stroke:none"
             id="path673" /></g><g
           id="g675"
           transform="translate(429.1362,484.043)"><path
             d="m 0,0 h -3.079 l -0.007,1.539 c 1.042,0.011 2.056,0.045 3.044,0.1 L 0.042,0.102 C 0.028,0.101 0.015,0.101 0,0.099 Z"
             style="fill:#ffffff;fill-opacity:1;fill-rule:nonzero;stroke:none"
             id="path677" /></g><g
           id="g679"
           transform="translate(495.0386,517.6616)"><path
             d="M 0,0 -0.088,6.298 1.451,6.319 1.54,0.021 Z m 0.188,-12.599 -0.096,6.299 1.539,0.024 0.096,-6.298 z m 0.9,-12.757 -1.44,0.541 c 0.445,1.19 0.671,2.537 0.671,4.008 l -0.03,1.913 1.539,0.024 0.03,-1.937 c 0,-1.655 -0.258,-3.186 -0.77,-4.549 m -10.208,-7.683 -0.337,1.5 c 2.194,0.496 4.055,1.255 5.529,2.261 l 0.866,-1.271 c -1.634,-1.116 -3.672,-1.953 -6.058,-2.49 m -44.192,-0.58 h -6.295 v 1.539 h 6.295 z m 12.591,0 h -6.295 v 1.539 h 6.295 z m 12.589,0 h -6.295 v 1.539 h 6.295 z m 12.251,-0.123 c -1.702,0 -2.814,0.123 -2.861,0.127 l -3.094,-0.004 v 1.539 h 3.18 c 0.096,-0.005 1.167,-0.123 2.775,-0.123 l 0.328,0.001 0.021,-1.539 z"
             style="fill:#ffffff;fill-opacity:1;fill-rule:nonzero;stroke:none"
             id="path681" /></g><g
           id="g683"
           transform="translate(494.8628,530.2715)"><path
             d="m 0,0 -0.041,3.074 1.54,0.021 0.04,-3.074 z"
             style="fill:#ffffff;fill-opacity:1;fill-rule:nonzero;stroke:none"
             id="path685" /></g><g
           id="g687"
           transform="translate(592.6592,480.4482)"><path
             d="M 0,0 V 51.371"
             style="fill:#ffffff;fill-opacity:1;fill-rule:nonzero;stroke:none"
             id="path689" /></g><path
           d="m 593.593,480.448 h -1.868 v 3.269 h 1.868 z"
           style="fill:#ffffff;fill-opacity:1;fill-rule:nonzero;stroke:none"
           id="path691" /><path
           d="m 593.593,515.741 h -1.868 v 6.405 h 1.868 z m 0,-12.809 h -1.868 v 6.405 h 1.868 z m 0,-12.81 h -1.868 v 6.404 h 1.868 z"
           style="fill:#ffffff;fill-opacity:1;fill-rule:nonzero;stroke:none"
           id="path693" /><path
           d="m 593.593,528.551 h -1.868 v 3.268 h 1.868 z"
           style="fill:#ffffff;fill-opacity:1;fill-rule:nonzero;stroke:none"
           id="path695" /><g
           id="g697"
           transform="translate(248.7607,416.3027)"><path
             d="m 0,0 v -21.557 c 2.346,-0.208 4.246,-0.311 5.701,-0.311 5.167,0 8.915,0.875 11.246,2.628 2.331,1.751 3.496,4.66 3.496,8.729 0,3.712 -1.084,6.413 -3.251,8.107 C 15.024,-0.713 11.239,0.133 5.835,0.133 4.706,0.133 2.762,0.089 0,0 M 0,24.675 V 9.041 C 1.782,8.923 3.653,8.863 5.612,8.863 c 7.542,0 11.313,2.835 11.313,8.507 0,5.018 -3.43,7.527 -10.288,7.527 C 4.825,24.897 2.613,24.822 0,24.675 M 8.374,-31.266 H -11.58 v 65.205 c 8.789,0.415 14.95,0.624 18.484,0.624 6.769,0 12.062,-1.449 15.878,-4.344 3.815,-2.894 5.723,-7.03 5.723,-12.404 0,-5.166 -2.733,-9.249 -8.195,-12.248 8.106,-2.821 12.159,-8.64 12.159,-17.46 0,-5.938 -2.242,-10.652 -6.726,-14.139 -4.483,-3.489 -10.273,-5.234 -17.369,-5.234"
             style="fill:#25b768;fill-opacity:1;fill-rule:nonzero;stroke:none"
             id="path699" /></g><g
           id="g701"
           transform="translate(301.0923,406.6494)"><path
             d="m 0,0 c 0,-9.519 3.785,-14.276 11.357,-14.276 3.475,0 6.227,1.236 8.262,3.71 2.033,2.472 3.051,5.995 3.051,10.566 0,9.382 -3.772,14.074 -11.313,14.074 -3.474,0 -6.235,-1.237 -8.284,-3.71 C 1.024,7.891 0,4.437 0,0 m -11.581,0 c 0,6.587 2.101,11.95 6.303,16.091 4.201,4.139 9.746,6.21 16.635,6.21 7.245,0 12.872,-1.99 16.88,-5.968 C 32.246,12.354 34.25,6.909 34.25,0 c 0,-6.883 -2.042,-12.355 -6.125,-16.414 -4.082,-4.06 -9.671,-6.089 -16.768,-6.089 -7.245,0 -12.879,2.049 -16.902,6.149 -4.024,4.1 -6.036,9.551 -6.036,16.354"
             style="fill:#25b768;fill-opacity:1;fill-rule:nonzero;stroke:none"
             id="path703" /></g><g
           id="g705"
           transform="translate(373.6436,418.7471)"><path
             d="m 0,0 c -1.989,1.183 -4.171,1.774 -6.547,1.774 -2.583,0 -4.877,-1.061 -6.881,-3.185 -2.004,-2.124 -3.007,-4.719 -3.007,-7.783 V -33.795 H -27.569 V 9.397 h 11.134 V 5.444 c 3.118,3.173 7.26,4.759 12.427,4.759 3.8,0 6.71,-0.523 8.73,-1.572 z"
             style="fill:#25b768;fill-opacity:1;fill-rule:nonzero;stroke:none"
             id="path707" /></g><g
           id="g709"
           transform="translate(417.5571,417.8203)"><path
             d="m 0,0 c -2.375,1.721 -4.855,2.581 -7.438,2.581 -4.454,0 -7.883,-1.229 -10.288,-3.69 -2.405,-2.46 -3.608,-5.99 -3.608,-10.586 0,-8.981 4.78,-13.47 14.342,-13.47 1.068,0 2.382,0.289 3.941,0.867 1.559,0.578 2.576,1.162 3.051,1.754 z m 0,-32.868 v 2.622 c -0.92,-0.915 -2.479,-1.715 -4.677,-2.4 -2.197,-0.685 -4.469,-1.028 -6.814,-1.028 -6.652,0 -11.884,1.908 -15.7,5.727 -3.815,3.816 -5.723,9.139 -5.723,15.969 0,6.83 2.189,12.387 6.57,16.676 4.379,4.288 9.865,6.432 16.457,6.432 3.622,0 6.917,-0.673 9.887,-2.017 v 17.302 l 11.135,2.42 v -61.703 z"
             style="fill:#25b768;fill-opacity:1;fill-rule:nonzero;stroke:none"
             id="path711" /></g><g
           id="g713"
           transform="translate(450.5586,411.0449)"><path
             d="M 0,0 H 23.428 C 22.654,6.317 18.795,9.477 11.847,9.477 5.492,9.477 1.543,6.317 0,0 M 33.671,-7.581 H -0.401 c 0.208,-3.443 1.514,-6.117 3.919,-8.025 2.405,-1.911 5.642,-2.865 9.71,-2.865 5.077,0 8.937,1.197 11.58,3.59 l 4.32,-7.703 c -3.92,-2.877 -9.77,-4.314 -17.548,-4.314 -7.276,0 -13.028,1.928 -17.259,5.787 -4.231,3.856 -6.346,9.24 -6.346,16.151 0,6.801 2.322,12.314 6.969,16.534 4.647,4.22 10.223,6.331 16.725,6.331 6.918,0 12.471,-1.869 16.657,-5.605 4.187,-3.737 6.28,-8.496 6.28,-14.276 0,-1.237 -0.312,-3.105 -0.935,-5.605"
             style="fill:#25b768;fill-opacity:1;fill-rule:nonzero;stroke:none"
             id="path715" /></g><g
           id="g717"
           transform="translate(523.4668,418.7471)"><path
             d="m 0,0 c -1.989,1.183 -4.172,1.774 -6.547,1.774 -2.584,0 -4.878,-1.061 -6.881,-3.185 -2.005,-2.124 -3.007,-4.719 -3.007,-7.783 V -33.795 H -27.569 V 9.397 h 11.134 V 5.444 c 3.119,3.173 7.26,4.759 12.427,4.759 3.801,0 6.71,-0.523 8.73,-1.572 z"
             style="fill:#25b768;fill-opacity:1;fill-rule:nonzero;stroke:none"
             id="path719" /></g><g
           id="g721"
           transform="translate(574.9072,385.0371)"><path
             d="M 0,0 V 29.396 H -25.966 V 0 h -11.58 v 65.249 h 11.58 V 39.684 H 0 V 65.249 H 11.447 V 0 Z"
             style="fill:#198cc9;fill-opacity:1;fill-rule:nonzero;stroke:none"
             id="path723" /></g><g
           id="g725"
           transform="translate(626.3477,404.791)"><path
             d="m 0,0 c -1.9,0.342 -3.325,0.513 -4.275,0.513 -8.79,0 -13.183,-2.549 -13.183,-7.644 0,-3.783 2.478,-5.674 7.437,-5.674 6.68,0 10.021,2.955 10.021,8.866 z m 1.069,-15.641 c -1.009,-1.471 -2.769,-2.672 -5.278,-3.606 -2.51,-0.932 -5.129,-1.398 -7.861,-1.398 -5.137,0 -9.175,1.136 -12.115,3.408 -2.939,2.272 -4.409,5.496 -4.409,9.673 0,4.884 2.072,8.707 6.213,11.464 4.142,2.758 10.028,4.137 17.66,4.137 1.307,0 2.851,-0.197 4.632,-0.591 0,4.965 -3.548,7.448 -10.644,7.448 -4.187,0 -7.691,-0.619 -10.512,-1.853 l -2.404,7.644 c 3.83,1.627 8.387,2.443 13.672,2.443 7.275,0 12.605,-1.465 15.99,-4.393 3.385,-2.93 5.077,-8.478 5.077,-16.647 v -9.022 c 0,-5.622 1.277,-9.155 3.83,-10.598 -0.919,-1.419 -1.944,-2.293 -3.073,-2.62 -1.128,-0.329 -2.419,-0.493 -3.874,-0.493 -1.603,0 -3.044,0.526 -4.321,1.576 -1.276,1.05 -2.137,2.193 -2.583,3.428"
             style="fill:#198cc9;fill-opacity:1;fill-rule:nonzero;stroke:none"
             id="path727" /></g><g
           id="g729"
           transform="translate(688.6992,423.7822)"><path
             d="m 0,0 -4.765,-7.368 c -2.614,2.18 -6.117,3.27 -10.511,3.27 -4.217,0 -7.549,-1.241 -9.999,-3.723 -2.45,-2.483 -3.674,-5.917 -3.674,-10.303 0,-8.853 4.764,-13.277 14.297,-13.277 4.127,0 7.764,1.207 10.912,3.624 l 4.097,-7.762 c -3.237,-1.786 -6.065,-2.915 -8.484,-3.388 -2.421,-0.472 -5.278,-0.709 -8.574,-0.709 -7.364,0 -13.177,1.897 -17.438,5.693 -4.26,3.796 -6.39,9.068 -6.39,15.819 0,6.645 2.33,12.017 6.992,16.114 4.662,4.097 11.016,6.147 19.063,6.147 C -8.923,4.137 -4.097,2.758 0,0"
             style="fill:#198cc9;fill-opacity:1;fill-rule:nonzero;stroke:none"
             id="path731" /></g><g
           id="g733"
           transform="translate(730.2979,384.9336)"><path
             d="m 0,0 -14.03,19.108 -5.344,-5.003 V 0 h -11.135 v 57.918 l 11.135,2.363 V 26.004 l 15.9,16.193 H 9.932 L -6.191,26.201 13.229,0 Z"
             style="fill:#198cc9;fill-opacity:1;fill-rule:nonzero;stroke:none"
             id="path735" /></g><g
           id="g737"
           transform="translate(748.6455,387.6523)"><path
             d="m 0,0 3.963,7.841 c 3.325,-2.338 7.083,-3.507 11.268,-3.507 4.335,0 6.503,1.365 6.503,4.098 0,1.602 -0.652,2.915 -1.959,3.94 -1.307,1.024 -3.846,2.232 -7.617,3.624 -8.224,3.021 -12.337,7.25 -12.337,12.687 0,3.65 1.575,6.495 4.722,8.53 3.147,2.035 7.171,3.054 12.07,3.054 4.958,0 9.62,-0.986 13.985,-2.955 l -3.207,-7.644 c -2.435,1.838 -5.82,2.758 -10.155,2.758 -3.89,0 -5.835,-1.366 -5.835,-4.097 0,-1.078 0.639,-2.05 1.915,-2.916 1.278,-0.867 4.009,-2.029 8.196,-3.487 4.187,-1.457 7.2,-3.225 9.041,-5.3 1.841,-2.074 2.761,-4.584 2.761,-7.525 0,-3.914 -1.64,-6.993 -4.921,-9.239 -3.281,-2.246 -7.743,-3.368 -13.384,-3.368 -3.177,0 -5.723,0.23 -7.639,0.69 C 5.456,-2.357 2.998,-1.419 0,0"
             style="fill:#198cc9;fill-opacity:1;fill-rule:nonzero;stroke:none"
             id="path739" /></g></g></g></g></svg>
